<svg width="100" height="92" viewBox="-5 3 101 87" fill="none" xmlns="http://www.w3.org/2000/svg">
<path fill-rule="evenodd" clip-rule="evenodd" d="M42.6369 83.8028C43.8466 85.8975 46.873 85.8975 48.0828 83.8028L89.7943 11.5788C91.0034 9.48521 89.4908 6.86914 87.0713 6.86914L3.64831 6.86916C1.2288 6.86916 -0.283738 9.48523 0.92535 11.5788L42.6369 83.8028ZM74.0779 18.4967C74.4405 17.8686 73.9867 17.0839 73.2609 17.0839L42.1159 17.0839C41.39 17.0839 40.9362 17.869 41.2992 18.4971L44.3847 23.8356C44.5531 24.1271 44.8645 24.3067 45.2014 24.3067L59.9088 24.3067C60.6328 24.3067 61.0867 25.0877 60.7279 25.7158L53.4115 38.5201C53.2453 38.811 53.2462 39.1682 53.4138 39.4582L56.8806 45.4566C57.2437 46.0848 58.1516 46.0846 58.5144 45.4562L74.0779 18.4967ZM17.4258 17.0839C16.7 17.0839 16.2463 17.8686 16.6088 18.4967L44.5264 66.8561C44.8893 67.4847 45.7975 67.4847 46.1604 66.8561L53.331 54.4349C53.4992 54.1435 53.4992 53.7845 53.3308 53.4932L32.56 17.555C32.3916 17.2635 32.0802 17.0839 31.7433 17.0839L17.4258 17.0839Z" fill="#216FED"/>
</svg>
