<svg width="240" height="90" viewBox="0 0 240 90" fill="none" xmlns="http://www.w3.org/2000/svg">
<path fill-rule="evenodd" clip-rule="evenodd" d="M42.6369 83.8028C43.8466 85.8975 46.873 85.8975 48.0828 83.8028L89.7943 11.5788C91.0034 9.48521 89.4908 6.86914 87.0713 6.86914L3.64831 6.86916C1.2288 6.86916 -0.283738 9.48523 0.92535 11.5788L42.6369 83.8028ZM74.0779 18.4967C74.4405 17.8686 73.9867 17.0839 73.2609 17.0839L42.1159 17.0839C41.39 17.0839 40.9362 17.869 41.2992 18.4971L44.3847 23.8356C44.5531 24.1271 44.8645 24.3067 45.2014 24.3067L59.9088 24.3067C60.6328 24.3067 61.0867 25.0877 60.7279 25.7158L53.4115 38.5201C53.2453 38.811 53.2462 39.1682 53.4138 39.4582L56.8806 45.4566C57.2437 46.0848 58.1516 46.0846 58.5144 45.4562L74.0779 18.4967ZM17.4258 17.0839C16.7 17.0839 16.2463 17.8686 16.6088 18.4967L44.5264 66.8561C44.8893 67.4847 45.7975 67.4847 46.1604 66.8561L53.331 54.4349C53.4992 54.1435 53.4992 53.7845 53.3308 53.4932L32.56 17.555C32.3916 17.2635 32.0802 17.0839 31.7433 17.0839L17.4258 17.0839Z" fill="#FFFFFF"/>
<path d="M113.155 62L104.145 39.0082H109.372L116.3 57.7501H114.387L121.315 39.0082H126.584L117.532 62H113.155ZM138.953 62.51C136.658 62.51 134.618 61.9858 132.833 60.9375C131.077 59.8609 129.703 58.4159 128.711 56.6027C127.719 54.761 127.224 52.7069 127.224 50.4403C127.224 48.1171 127.719 46.063 128.711 44.278C129.731 42.4931 131.091 41.0906 132.791 40.0706C134.491 39.0223 136.417 38.4982 138.571 38.4982C140.299 38.4982 141.843 38.7957 143.203 39.3907C144.563 39.9856 145.71 40.8073 146.645 41.8556C147.58 42.8756 148.289 44.0514 148.77 45.383C149.28 46.7146 149.535 48.1312 149.535 49.6329C149.535 50.0012 149.521 50.3837 149.493 50.7803C149.465 51.177 149.408 51.5453 149.323 51.8853H131.006V48.0604H146.603L144.308 49.8029C144.591 48.4146 144.492 47.1821 144.011 46.1055C143.557 45.0005 142.849 44.1363 141.886 43.513C140.951 42.8614 139.846 42.5356 138.571 42.5356C137.296 42.5356 136.162 42.8614 135.171 43.513C134.179 44.1363 133.414 45.043 132.876 46.233C132.338 47.3946 132.125 48.8112 132.238 50.4828C132.097 52.0411 132.309 53.4011 132.876 54.5627C133.471 55.7243 134.292 56.631 135.341 57.2826C136.417 57.9343 137.636 58.2601 138.996 58.2601C140.384 58.2601 141.56 57.9485 142.523 57.3251C143.515 56.7018 144.294 55.8943 144.861 54.9027L148.77 56.8151C148.317 57.8918 147.609 58.8693 146.645 59.7476C145.71 60.5975 144.577 61.2775 143.246 61.7875C141.942 62.2692 140.511 62.51 138.953 62.51ZM152.947 62V39.0082H157.537V43.513L156.985 42.9181C157.551 41.4731 158.458 40.3823 159.705 39.6456C160.951 38.8807 162.396 38.4982 164.039 38.4982C165.739 38.4982 167.241 38.8665 168.544 39.6031C169.848 40.3398 170.868 41.3598 171.604 42.6631C172.341 43.9664 172.709 45.468 172.709 47.1679V62H167.949V48.4429C167.949 47.2813 167.737 46.3038 167.312 45.5105C166.887 44.6888 166.278 44.0655 165.484 43.6405C164.719 43.1872 163.841 42.9605 162.849 42.9605C161.858 42.9605 160.965 43.1872 160.172 43.6405C159.407 44.0655 158.812 44.6888 158.387 45.5105C157.962 46.3321 157.75 47.3096 157.75 48.4429V62H152.947ZM187.199 62.51C184.989 62.51 183.005 61.9858 181.249 60.9375C179.52 59.8609 178.146 58.4159 177.126 56.6027C176.135 54.7894 175.639 52.7494 175.639 50.4828C175.639 48.2162 176.149 46.1763 177.169 44.363C178.189 42.5497 179.563 41.1189 181.291 40.0706C183.02 39.0223 184.974 38.4982 187.156 38.4982C188.998 38.4982 190.627 38.8665 192.043 39.6031C193.46 40.3398 194.579 41.3598 195.401 42.6631L194.678 43.768V29.8284H199.438V62H194.891V57.3251L195.443 58.2176C194.65 59.6059 193.517 60.6684 192.043 61.405C190.57 62.1417 188.955 62.51 187.199 62.51ZM187.666 58.0476C188.998 58.0476 190.188 57.7218 191.236 57.0701C192.313 56.4185 193.148 55.526 193.743 54.3927C194.367 53.2311 194.678 51.9278 194.678 50.4828C194.678 49.0379 194.367 47.7487 193.743 46.6154C193.148 45.4821 192.313 44.5897 191.236 43.938C190.188 43.2864 188.998 42.9605 187.666 42.9605C186.334 42.9605 185.13 43.2864 184.054 43.938C182.977 44.5897 182.141 45.4821 181.546 46.6154C180.951 47.7487 180.654 49.0379 180.654 50.4828C180.654 51.9278 180.951 53.2311 181.546 54.3927C182.141 55.526 182.963 56.4185 184.011 57.0701C185.088 57.7218 186.306 58.0476 187.666 58.0476ZM203.77 62V39.0082H208.36V43.6405L207.935 42.9605C208.445 41.4589 209.266 40.3823 210.4 39.7306C211.533 39.0507 212.893 38.7107 214.479 38.7107H215.882V43.088H213.885C212.298 43.088 211.009 43.5839 210.017 44.5755C209.054 45.5388 208.572 46.9271 208.572 48.7404V62H203.77ZM224.777 62.51C223.219 62.51 221.845 62.2408 220.655 61.7025C219.493 61.1359 218.586 60.3709 217.935 59.4076C217.283 58.4159 216.957 57.2543 216.957 55.9227C216.957 54.676 217.227 53.5569 217.765 52.5653C218.331 51.5736 219.196 50.7378 220.357 50.0578C221.519 49.3779 222.978 48.8962 224.735 48.6129L232.724 47.2954V51.0778L225.67 52.3103C224.395 52.5369 223.46 52.9478 222.865 53.5427C222.27 54.1094 221.972 54.846 221.972 55.7527C221.972 56.631 222.298 57.3535 222.95 57.9201C223.63 58.4584 224.494 58.7276 225.542 58.7276C226.845 58.7276 227.979 58.4443 228.942 57.8776C229.934 57.311 230.699 56.5602 231.237 55.6252C231.775 54.6619 232.044 53.5994 232.044 52.4378V46.5304C232.044 45.3971 231.619 44.4763 230.769 43.768C229.948 43.0314 228.843 42.6631 227.455 42.6631C226.18 42.6631 225.06 43.003 224.097 43.683C223.162 44.3347 222.468 45.1847 222.015 46.233L218.02 44.2355C218.445 43.1022 219.139 42.1106 220.102 41.2606C221.066 40.3823 222.185 39.7023 223.46 39.2207C224.763 38.739 226.137 38.4982 227.582 38.4982C229.395 38.4982 230.996 38.8382 232.384 39.5181C233.801 40.1981 234.892 41.1473 235.657 42.3656C236.45 43.5555 236.847 44.9438 236.847 46.5304V62H232.257V57.8351L233.234 57.9626C232.696 58.8976 232.002 59.7051 231.152 60.385C230.33 61.065 229.381 61.5892 228.305 61.9575C227.256 62.3258 226.08 62.51 224.777 62.51Z" fill="#FFFFFF"/>
</svg>
